<svg width="24" height="24" viewBox="0 0 24 24" fill="none" xmlns="http://www.w3.org/2000/svg">
<mask id="mask0_25_1297" style="mask-type:alpha" maskUnits="userSpaceOnUse" x="0" y="0" width="24" height="24">
<rect width="24" height="24" fill="#D9D9D9"/>
</mask>
<g mask="url(#mask0_25_1297)">
<path d="M14.908 19.5C12.8132 19.5 11.0388 18.773 9.58475 17.319C8.13092 15.8652 7.404 14.0907 7.404 11.9957C7.404 9.91658 8.13092 8.1475 9.58475 6.6885C11.0388 5.2295 12.8132 4.5 14.908 4.5C16.9873 4.5 18.7564 5.2295 20.2153 6.6885C21.6743 8.1475 22.4038 9.91658 22.4038 11.9957C22.4038 14.0907 21.6743 15.8652 20.2153 17.319C18.7564 18.773 16.9873 19.5 14.908 19.5ZM14.9038 18C16.5704 18 17.9871 17.4167 19.1538 16.25C20.3204 15.0833 20.9038 13.6667 20.9038 12C20.9038 10.3333 20.3204 8.91667 19.1538 7.75C17.9871 6.58333 16.5704 6 14.9038 6C13.2371 6 11.8204 6.58333 10.6538 7.75C9.48708 8.91667 8.90375 10.3333 8.90375 12C8.90375 13.6667 9.48708 15.0833 10.6538 16.25C11.8204 17.4167 13.2371 18 14.9038 18ZM17.275 15.4653L18.3443 14.3963L15.6538 11.7058V8.15375H14.1538V12.3192L17.275 15.4653ZM2.59625 8.75V7.25H6.404V8.75H2.59625ZM1.59625 12.75V11.25H6.404V12.75H1.59625ZM2.59625 16.75V15.25H6.404V16.75H2.59625Z" fill="#1C1B1F"/>
</g>
</svg>
