<svg width="20" height="20" viewBox="0 0 20 20" fill="none" xmlns="http://www.w3.org/2000/svg">
<mask id="mask0_25_1327" style="mask-type:alpha" maskUnits="userSpaceOnUse" x="0" y="0" width="20" height="20">
<rect width="20" height="20" fill="#D9D9D9"/>
</mask>
<g mask="url(#mask0_25_1327)">
<path d="M4.75645 17.5835C4.38131 17.5835 4.06423 17.4516 3.8052 17.1877C3.54617 16.9238 3.41666 16.6091 3.41666 16.2437V5.75663C3.41666 5.39122 3.54617 5.07656 3.8052 4.81268C4.06423 4.54879 4.38131 4.41684 4.75645 4.41684H6.57686V2.8783C6.57686 2.71927 6.62964 2.58656 6.7352 2.48018C6.84075 2.37393 6.97242 2.3208 7.1302 2.3208C7.28812 2.3208 7.42124 2.37393 7.52957 2.48018C7.63805 2.58656 7.69228 2.71927 7.69228 2.8783V4.41684H12.3398V2.86247C12.3398 2.70872 12.3912 2.57997 12.4939 2.47622C12.5969 2.37261 12.7246 2.3208 12.8771 2.3208C13.0296 2.3208 13.1587 2.37261 13.2644 2.47622C13.3702 2.57997 13.4231 2.70872 13.4231 2.86247V4.41684H15.2435C15.6187 4.41684 15.9358 4.54879 16.1948 4.81268C16.4538 5.07656 16.5833 5.39122 16.5833 5.75663V16.2437C16.5833 16.6091 16.4538 16.9238 16.1948 17.1877C15.9358 17.4516 15.6187 17.5835 15.2435 17.5835H4.75645ZM4.75645 16.5002H15.2435C15.3077 16.5002 15.3664 16.4734 15.4198 16.42C15.4733 16.3666 15.5 16.3079 15.5 16.2437V9.25663H4.49999V16.2437C4.49999 16.3079 4.52673 16.3666 4.5802 16.42C4.63353 16.4734 4.69228 16.5002 4.75645 16.5002ZM4.49999 8.1733H15.5V5.75663C15.5 5.69247 15.4733 5.63372 15.4198 5.58038C15.3664 5.52691 15.3077 5.50018 15.2435 5.50018H4.75645C4.69228 5.50018 4.63353 5.52691 4.5802 5.58038C4.52673 5.63372 4.49999 5.69247 4.49999 5.75663V8.1733Z" fill="#AFADAD"/>
</g>
</svg>
