<svg width="14" height="13" viewBox="0 0 14 13" fill="none" xmlns="http://www.w3.org/2000/svg">
<path d="M2 11.5H5.25C5.4625 11.5 5.64067 11.5719 5.7845 11.7158C5.92817 11.8596 6 12.0378 6 12.2503C6 12.4629 5.92817 12.641 5.7845 12.7845C5.64067 12.9282 5.4625 13 5.25 13H1.404C1.14783 13 0.933167 12.9133 0.76 12.74C0.586667 12.5668 0.5 12.3522 0.5 12.096V8.25C0.5 8.0375 0.571917 7.85933 0.71575 7.7155C0.859583 7.57183 1.03775 7.5 1.25025 7.5C1.46292 7.5 1.641 7.57183 1.7845 7.7155C1.92817 7.85933 2 8.0375 2 8.25V11.5ZM12 1.5H8.75C8.5375 1.5 8.35933 1.42808 8.2155 1.28425C8.07183 1.14042 8 0.96225 8 0.74975C8 0.537083 8.07183 0.359 8.2155 0.2155C8.35933 0.0718332 8.5375 0 8.75 0H12.596C12.8522 0 13.0668 0.0866673 13.24 0.260001C13.4133 0.433167 13.5 0.647833 13.5 0.903999V4.75C13.5 4.9625 13.4281 5.14067 13.2843 5.2845C13.1404 5.42817 12.9622 5.5 12.7498 5.5C12.5371 5.5 12.359 5.42817 12.2155 5.2845C12.0718 5.14067 12 4.9625 12 4.75V1.5Z" fill="#AFADAD"/>
</svg>
