<svg width="20" height="18" viewBox="0 0 20 18" fill="none" xmlns="http://www.w3.org/2000/svg">
<path d="M2.30775 17.4998C1.80258 17.4998 1.375 17.3248 1.025 16.9748C0.675 16.6248 0.5 16.1972 0.5 15.692V11.3075C0.5 10.8024 0.675 10.3748 1.025 10.0248C1.375 9.67479 1.80258 9.49979 2.30775 9.49979H6.61525C6.72425 10.3588 7.09925 11.0735 7.74025 11.644C8.38142 12.2145 9.13467 12.4998 10 12.4998C10.8782 12.4998 11.6378 12.2145 12.2788 11.644C12.9199 11.0735 13.2886 10.3588 13.3848 9.49979H17.6923C18.1974 9.49979 18.625 9.67479 18.975 10.0248C19.325 10.3748 19.5 10.8024 19.5 11.3075V15.692C19.5 16.1972 19.325 16.6248 18.975 16.9748C18.625 17.3248 18.1974 17.4998 17.6923 17.4998H2.30775ZM2.30775 15.9998H17.6923C17.7693 15.9998 17.8398 15.9677 17.9038 15.9035C17.9679 15.8395 18 15.769 18 15.692V11.3075C18 11.2305 17.9679 11.16 17.9038 11.096C17.8398 11.0319 17.7693 10.9998 17.6923 10.9998H14.6C14.177 11.9165 13.5546 12.6456 12.7327 13.1873C11.9109 13.729 11 13.9998 10 13.9998C9 13.9998 8.08908 13.729 7.26725 13.1873C6.44542 12.6456 5.823 11.9165 5.4 10.9998H2.30775C2.23075 10.9998 2.16025 11.0319 2.09625 11.096C2.03208 11.16 2 11.2305 2 11.3075V15.692C2 15.769 2.03208 15.8395 2.09625 15.9035C2.16025 15.9677 2.23075 15.9998 2.30775 15.9998ZM15.5038 7.74204L14.45 6.68829L17.6538 3.48454L18.7078 4.53829L15.5038 7.74204ZM4.49625 7.74204L1.29225 4.53829L2.34625 3.48454L5.55 6.68829L4.49625 7.74204ZM9.25 5.01904V0.519043H10.75V5.01904H9.25ZM2.30775 15.9998H2H18H2.30775Z" fill="#1C1B1F"/>
</svg>
