<svg width="20" height="20" viewBox="0 0 20 20" fill="none" xmlns="http://www.w3.org/2000/svg">
<mask id="mask0_25_1438" style="mask-type:alpha" maskUnits="userSpaceOnUse" x="0" y="0" width="20" height="20">
<rect width="20" height="20" fill="#D9D9D9"/>
</mask>
<g mask="url(#mask0_25_1438)">
<path d="M10.5 3.49984V2.4165H17.5833V3.49984H10.5ZM10.5 6.24338V5.16005H17.5833V6.24338H10.5ZM10.5 8.98692V7.90359H17.5833V8.98692H10.5ZM14.4294 17.5415C12.9145 17.4165 11.4618 17.0166 10.0713 16.3419C8.68084 15.6672 7.41911 14.7621 6.28605 13.6265C5.15313 12.4908 4.25973 11.2325 3.60584 9.8515C2.95195 8.47067 2.55556 7.02282 2.41668 5.50796C2.3889 5.21393 2.47424 4.95852 2.67272 4.74171C2.87105 4.52491 3.11904 4.4165 3.41668 4.4165H5.59293C5.84501 4.4165 6.06188 4.49213 6.24355 4.64338C6.42522 4.79449 6.55181 4.99185 6.62334 5.23546L7.05938 6.979C7.09244 7.16484 7.08202 7.34644 7.02813 7.5238C6.97411 7.70116 6.88619 7.84539 6.76438 7.9565L4.8398 9.83005C5.14952 10.4112 5.49299 10.9547 5.87022 11.4607C6.2473 11.9665 6.65695 12.4426 7.09918 12.889C7.53626 13.3326 8.00883 13.7435 8.51688 14.1217C9.02494 14.4999 9.57758 14.8439 10.1748 15.1538L12.149 13.2259C12.2597 13.1041 12.3917 13.0194 12.5452 12.9717C12.6988 12.9242 12.8686 12.9213 13.0546 12.963L14.7227 13.33C14.9748 13.3856 15.1743 13.5103 15.3213 13.7042C15.4682 13.8981 15.5417 14.1238 15.5417 14.3813V16.5415C15.5417 16.8391 15.4298 17.0871 15.2061 17.2855C14.9823 17.4839 14.7234 17.5693 14.4294 17.5415ZM4.35251 8.77234L5.92313 7.26588C5.9498 7.24449 5.96716 7.21511 5.97522 7.17775C5.98327 7.14039 5.98195 7.10567 5.97126 7.07359L5.60563 5.62796C5.59494 5.58532 5.57626 5.55331 5.54959 5.53192C5.52293 5.51053 5.4882 5.49984 5.44543 5.49984H3.64584C3.61376 5.49984 3.58702 5.51053 3.56563 5.53192C3.54438 5.55331 3.53376 5.58005 3.53376 5.61213C3.5764 6.13991 3.66959 6.6663 3.81334 7.1913C3.95695 7.71643 4.13668 8.24345 4.35251 8.77234ZM11.2692 15.6617C11.7674 15.8809 12.2883 16.0473 12.8319 16.1611C13.3756 16.2747 13.8804 16.3582 14.3461 16.4117C14.3781 16.4117 14.4049 16.401 14.4263 16.3796C14.4476 16.3582 14.4583 16.3315 14.4583 16.2994V14.5046C14.4583 14.4619 14.4476 14.4271 14.4263 14.4005C14.4049 14.3738 14.3729 14.3551 14.3302 14.3444L12.9761 14.0511C12.944 14.0404 12.9159 14.0391 12.8919 14.0471C12.8679 14.0552 12.8424 14.0725 12.8156 14.0992L11.2692 15.6617Z" fill="#0000FF"/>
</g>
</svg>
