<svg width="20" height="20" viewBox="0 0 20 20" fill="none" xmlns="http://www.w3.org/2000/svg">
<mask id="mask0_25_1424" style="mask-type:alpha" maskUnits="userSpaceOnUse" x="0" y="0" width="20" height="20">
<rect width="20" height="20" fill="#D9D9D9"/>
</mask>
<g mask="url(#mask0_25_1424)">
<path d="M13.7944 16.5302C13.6943 16.5302 13.6039 16.5196 13.5234 16.4985C13.4427 16.4774 13.367 16.4404 13.2965 16.3875L11.194 15.1312C11.0454 15.0301 10.9272 14.9052 10.8396 14.7565C10.7521 14.6077 10.7084 14.4452 10.7084 14.269V11.7306C10.7084 11.5544 10.7521 11.3919 10.8396 11.2431C10.9272 11.0944 11.0454 10.9694 11.194 10.8683L13.2965 9.63291C13.3841 9.58624 13.4676 9.55076 13.5469 9.52645C13.6262 9.50229 13.7159 9.4902 13.8161 9.4902C13.9162 9.4902 14.0058 9.5034 14.0848 9.52979C14.1638 9.55617 14.2403 9.59055 14.3142 9.63291L16.4167 10.8892C16.5659 10.9903 16.6875 11.1152 16.7817 11.264C16.876 11.4127 16.9231 11.5752 16.9231 11.7515V14.2898C16.9231 14.466 16.876 14.6285 16.7817 14.7773C16.6875 14.926 16.5659 15.051 16.4167 15.1521L14.3073 16.3921C14.2254 16.4393 14.1444 16.4741 14.0644 16.4965C13.9844 16.519 13.8944 16.5302 13.7944 16.5302ZM8.00002 9.74333C7.28127 9.74333 6.67106 9.49249 6.1694 8.99083C5.66759 8.48902 5.41669 7.87874 5.41669 7.15999C5.41669 6.44124 5.66759 5.83104 6.1694 5.32937C6.67106 4.82756 7.28127 4.57666 8.00002 4.57666C8.71877 4.57666 9.32898 4.82756 9.83065 5.32937C10.3325 5.83104 10.5834 6.44124 10.5834 7.15999C10.5834 7.87874 10.3325 8.48902 9.83065 8.99083C9.32898 9.49249 8.71877 9.74333 8.00002 9.74333ZM2.41669 15.4229V13.9869C2.41669 13.6633 2.4928 13.3828 2.64502 13.1456C2.79724 12.9084 3.01016 12.7102 3.28377 12.551C4.03155 12.1227 4.78634 11.7998 5.54815 11.5823C6.30981 11.3649 7.1271 11.2562 8.00002 11.2562C8.13683 11.2562 8.26315 11.2597 8.37898 11.2667C8.49495 11.2736 8.62662 11.2787 8.77398 11.2819C8.70356 11.4645 8.65474 11.6474 8.62752 11.8306C8.60016 12.014 8.5753 12.1905 8.55294 12.3604L8.00002 12.3396C7.27669 12.3396 6.57662 12.4221 5.89981 12.5871C5.22301 12.7522 4.54217 13.0426 3.85731 13.4581C3.72453 13.531 3.63176 13.6096 3.57898 13.6937C3.52634 13.778 3.50002 13.8758 3.50002 13.9869V14.3396H8.72919C8.77516 14.5182 8.83419 14.7003 8.90627 14.886C8.97835 15.0719 9.06676 15.2508 9.17148 15.4229H2.41669ZM8.0044 8.65999C8.41815 8.65999 8.77085 8.5127 9.06252 8.21812C9.35419 7.92353 9.50002 7.56937 9.50002 7.15562C9.50002 6.74187 9.35273 6.38916 9.05815 6.09749C8.76356 5.80583 8.4094 5.65999 7.99565 5.65999C7.5819 5.65999 7.22919 5.80735 6.93752 6.10208C6.64585 6.39666 6.50002 6.75083 6.50002 7.16458C6.50002 7.57819 6.64731 7.93083 6.9419 8.22249C7.23648 8.51416 7.59065 8.65999 8.0044 8.65999ZM11.8511 11.3571L13.8156 12.5462L15.7804 11.3571L13.8156 10.16L11.8511 11.3571ZM14.1875 15.6279L16.1794 14.4248V12.0398L14.1875 13.2562V15.6279ZM11.4519 14.4277L13.444 15.6279V13.2562L11.4519 12.0479V14.4277Z" fill="#0000FF"/>
</g>
</svg>
