<svg width="10" height="6" viewBox="0 0 10 6" fill="none" xmlns="http://www.w3.org/2000/svg">
<path d="M4.99582 5.5016C4.90651 5.5016 4.82346 5.48555 4.74665 5.45347C4.66985 5.42139 4.59936 5.37333 4.53519 5.3093L0.672068 1.44597C0.552068 1.32597 0.494151 1.19597 0.498318 1.05597C0.502623 0.916109 0.565123 0.785762 0.685818 0.664928C0.806651 0.544234 0.935678 0.483887 1.0729 0.483887C1.21012 0.483887 1.33915 0.544234 1.45998 0.664928L4.99998 4.22597L8.56082 0.664928C8.67623 0.549651 8.80394 0.494095 8.94394 0.498262C9.0838 0.502567 9.21415 0.565067 9.33498 0.685762C9.45568 0.806595 9.51603 0.935623 9.51603 1.07285C9.51603 1.21007 9.45332 1.34104 9.3279 1.46576L5.46478 5.3093C5.39505 5.37333 5.32179 5.42139 5.24498 5.45347C5.16818 5.48555 5.08512 5.5016 4.99582 5.5016Z" fill="#AFADAD"/>
</svg>
