<svg width="20" height="20" viewBox="0 0 20 20" fill="none" xmlns="http://www.w3.org/2000/svg">
<mask id="mask0_25_1445" style="mask-type:alpha" maskUnits="userSpaceOnUse" x="0" y="0" width="20" height="20">
<rect width="20" height="20" fill="#D9D9D9"/>
</mask>
<g mask="url(#mask0_25_1445)">
<path d="M3.75001 15.7918C3.59654 15.7918 3.46793 15.7403 3.36418 15.6372C3.26029 15.5342 3.20834 15.4066 3.20834 15.2543C3.20834 15.102 3.26029 14.9729 3.36418 14.8672C3.46793 14.7614 3.59654 14.7085 3.75001 14.7085H11.75C11.9035 14.7085 12.0321 14.76 12.1358 14.8631C12.2397 14.9661 12.2917 15.0938 12.2917 15.246C12.2917 15.3984 12.2397 15.5274 12.1358 15.6331C12.0321 15.7389 11.9035 15.7918 11.75 15.7918H3.75001ZM14.7554 15.7918C14.6025 15.7918 14.4731 15.7403 14.3673 15.6372C14.2613 15.5342 14.2083 15.4066 14.2083 15.2543C14.2083 15.102 14.2601 14.9729 14.3636 14.8672C14.467 14.7614 14.5952 14.7085 14.7481 14.7085H16.2446C16.3975 14.7085 16.5269 14.76 16.6327 14.8631C16.7387 14.9661 16.7917 15.0938 16.7917 15.246C16.7917 15.3984 16.7399 15.5274 16.6365 15.6331C16.533 15.7389 16.4048 15.7918 16.2519 15.7918H14.7554ZM3.75543 12.2918C3.60251 12.2918 3.47314 12.2403 3.3673 12.1372C3.26133 12.0342 3.20834 11.9066 3.20834 11.7543C3.20834 11.602 3.26008 11.4729 3.36355 11.3672C3.46702 11.2614 3.59522 11.2085 3.74814 11.2085H5.24459C5.39751 11.2085 5.52689 11.26 5.63272 11.3631C5.73869 11.4661 5.79168 11.5938 5.79168 11.746C5.79168 11.8984 5.73994 12.0274 5.63647 12.1331C5.533 12.2389 5.4048 12.2918 5.25189 12.2918H3.75543ZM8.25001 12.2918C8.09654 12.2918 7.96793 12.2403 7.86418 12.1372C7.76029 12.0342 7.70834 11.9066 7.70834 11.7543C7.70834 11.602 7.76029 11.4729 7.86418 11.3672C7.96793 11.2614 8.09654 11.2085 8.25001 11.2085H16.25C16.4035 11.2085 16.5321 11.26 16.6358 11.3631C16.7397 11.4661 16.7917 11.5938 16.7917 11.746C16.7917 11.8984 16.7397 12.0274 16.6358 12.1331C16.5321 12.2389 16.4035 12.2918 16.25 12.2918H8.25001ZM3.75001 8.79183C3.59654 8.79183 3.46793 8.7403 3.36418 8.63725C3.26029 8.53419 3.20834 8.40655 3.20834 8.25433C3.20834 8.10197 3.26029 7.97294 3.36418 7.86725C3.46793 7.76141 3.59654 7.7085 3.75001 7.7085H12.75C12.9035 7.7085 13.0321 7.76002 13.1358 7.86308C13.2397 7.96613 13.2917 8.09377 13.2917 8.246C13.2917 8.39836 13.2397 8.52739 13.1358 8.63308C13.0321 8.73891 12.9035 8.79183 12.75 8.79183H3.75001ZM15.75 8.79183C15.5965 8.79183 15.4679 8.7403 15.3642 8.63725C15.2603 8.53419 15.2083 8.40655 15.2083 8.25433C15.2083 8.10197 15.2603 7.97294 15.3642 7.86725C15.4679 7.76141 15.5965 7.7085 15.75 7.7085H16.25C16.4035 7.7085 16.5321 7.76002 16.6358 7.86308C16.7397 7.96613 16.7917 8.09377 16.7917 8.246C16.7917 8.39836 16.7397 8.52739 16.6358 8.63308C16.5321 8.73891 16.4035 8.79183 16.25 8.79183H15.75ZM3.75001 5.29183C3.59654 5.29183 3.46793 5.2403 3.36418 5.13725C3.26029 5.03419 3.20834 4.90655 3.20834 4.75433C3.20834 4.60197 3.26029 4.47294 3.36418 4.36725C3.46793 4.26141 3.59654 4.2085 3.75001 4.2085H7.25001C7.40348 4.2085 7.53209 4.26002 7.63584 4.36308C7.73973 4.46613 7.79168 4.59377 7.79168 4.746C7.79168 4.89836 7.73973 5.02739 7.63584 5.13308C7.53209 5.23891 7.40348 5.29183 7.25001 5.29183H3.75001ZM10.25 5.29183C10.0965 5.29183 9.96793 5.2403 9.86418 5.13725C9.76029 5.03419 9.70834 4.90655 9.70834 4.75433C9.70834 4.60197 9.76029 4.47294 9.86418 4.36725C9.96793 4.26141 10.0965 4.2085 10.25 4.2085H16.25C16.4035 4.2085 16.5321 4.26002 16.6358 4.36308C16.7397 4.46613 16.7917 4.59377 16.7917 4.746C16.7917 4.89836 16.7397 5.02739 16.6358 5.13308C16.5321 5.23891 16.4035 5.29183 16.25 5.29183H10.25Z" fill="#0000FF"/>
</g>
</svg>
