<svg width="20" height="20" viewBox="0 0 20 20" fill="none" xmlns="http://www.w3.org/2000/svg">
<path d="M18.5446 1.45553C18.1459 1.05684 17.5652 0.918918 17.0321 1.09045L2.05442 5.9049C1.48535 6.08802 1.0913 6.57016 1.02639 7.16473C0.961489 7.75813 1.24312 8.31445 1.75888 8.61463L7.06243 11.708L11.6439 7.12532C11.9835 6.78574 12.534 6.78574 12.8736 7.12532C13.2132 7.46491 13.2132 8.01543 12.8736 8.35501L8.29096 12.9377L11.3843 18.2412C11.6567 18.7071 12.1377 18.9818 12.6673 18.9818C12.7229 18.9818 12.7797 18.9783 12.8365 18.9725C13.4299 18.9076 13.9132 18.5136 14.0952 17.9457L18.9108 2.96918C19.0823 2.43256 18.9421 1.85307 18.5446 1.45553Z" fill="white"/>
</svg>
