<svg width="22" height="16" viewBox="0 0 22 16" fill="none" xmlns="http://www.w3.org/2000/svg">
<path d="M0.798218 15.3079V13.0846C0.798218 12.5693 0.931218 12.1094 1.19722 11.7049C1.46322 11.3004 1.81847 10.9857 2.26297 10.7609C3.2133 10.296 4.16888 9.93763 5.12972 9.68563C6.09072 9.4338 7.1468 9.30788 8.29797 9.30788C9.4493 9.30788 10.5054 9.4338 11.4662 9.68563C12.4272 9.93763 13.3829 10.296 14.3332 10.7609C14.7777 10.9857 15.133 11.3004 15.399 11.7049C15.665 12.1094 15.798 12.5693 15.798 13.0846V15.3079H0.798218ZM17.798 15.3079V12.9616C17.798 12.3053 17.6373 11.6797 17.316 11.0849C16.9945 10.4902 16.5385 9.97997 15.948 9.55413C16.6185 9.65413 17.2551 9.80888 17.8577 10.0184C18.4602 10.228 19.0352 10.4758 19.5827 10.7616C20.0994 11.0373 20.4984 11.3622 20.7797 11.7364C21.0611 12.1104 21.2017 12.5188 21.2017 12.9616V15.3079H17.798ZM8.29797 7.69238C7.33547 7.69238 6.51155 7.34972 5.82622 6.66438C5.14088 5.97888 4.79822 5.15488 4.79822 4.19238C4.79822 3.22988 5.14088 2.40597 5.82622 1.72063C6.51155 1.03513 7.33547 0.692383 8.29797 0.692383C9.26047 0.692383 10.0845 1.03513 10.77 1.72063C11.4553 2.40597 11.798 3.22988 11.798 4.19238C11.798 5.15488 11.4553 5.97888 10.77 6.66438C10.0845 7.34972 9.26047 7.69238 8.29797 7.69238ZM16.9325 4.19238C16.9325 5.15488 16.5898 5.97888 15.9045 6.66438C15.2191 7.34972 14.3952 7.69238 13.4327 7.69238C13.3199 7.69238 13.1763 7.67955 13.002 7.65388C12.8275 7.62822 12.6839 7.60005 12.5712 7.56938C12.9656 7.09522 13.2686 6.56922 13.4805 5.99138C13.6921 5.41355 13.798 4.81355 13.798 4.19138C13.798 3.56905 13.69 2.9713 13.474 2.39813C13.258 1.82513 12.9571 1.29763 12.5712 0.815633C12.7147 0.764299 12.8583 0.730966 13.002 0.715633C13.1455 0.700133 13.2891 0.692383 13.4327 0.692383C14.3952 0.692383 15.2191 1.03513 15.9045 1.72063C16.5898 2.40597 16.9325 3.22988 16.9325 4.19238ZM2.29797 13.8079H14.298V13.0846C14.298 12.8758 14.2457 12.69 14.1412 12.5271C14.0369 12.3643 13.8712 12.222 13.6442 12.1001C12.8212 11.6758 11.9738 11.3543 11.102 11.1356C10.2301 10.9171 9.29547 10.8079 8.29797 10.8079C7.30064 10.8079 6.36605 10.9171 5.49422 11.1356C4.62238 11.3543 3.77497 11.6758 2.95197 12.1001C2.72497 12.222 2.55922 12.3643 2.45472 12.5271C2.35022 12.69 2.29797 12.8758 2.29797 13.0846V13.8079ZM8.29797 6.19238C8.84797 6.19238 9.3188 5.99655 9.71047 5.60488C10.1021 5.21322 10.298 4.74238 10.298 4.19238C10.298 3.64238 10.1021 3.17155 9.71047 2.77988C9.3188 2.38822 8.84797 2.19238 8.29797 2.19238C7.74797 2.19238 7.27714 2.38822 6.88547 2.77988C6.4938 3.17155 6.29797 3.64238 6.29797 4.19238C6.29797 4.74238 6.4938 5.21322 6.88547 5.60488C7.27714 5.99655 7.74797 6.19238 8.29797 6.19238Z" fill="#676666"/>
</svg>
