<svg width="20" height="22" viewBox="0 0 20 22" fill="none" xmlns="http://www.w3.org/2000/svg">
<path d="M0.5 21.0387V4.30796C0.5 3.80279 0.675 3.37521 1.025 3.02521C1.375 2.67521 1.80258 2.50021 2.30775 2.50021H12.35C12.2962 2.75021 12.2677 2.99862 12.2645 3.24546C12.2613 3.49229 12.277 3.74387 12.3115 4.00021H2.30775C2.23075 4.00021 2.16025 4.03229 2.09625 4.09646C2.03208 4.16046 2 4.23096 2 4.30796V17.385L3.4 16.0002H17.6923C17.7693 16.0002 17.8398 15.9681 17.9038 15.904C17.9679 15.84 18 15.7695 18 15.6925V8.12146C18.2872 8.05729 18.5542 7.97521 18.801 7.87521C19.0477 7.77521 19.2807 7.64379 19.5 7.48096V15.6925C19.5 16.1976 19.325 16.6252 18.975 16.9752C18.625 17.3252 18.1974 17.5002 17.6923 17.5002H4.0385L0.5 21.0387ZM2 4.30796V16.6925V4.00021V4.30796ZM17 6.23096C16.2372 6.23096 15.5882 5.96337 15.053 5.42821C14.5177 4.89287 14.25 4.24379 14.25 3.48096C14.25 2.71812 14.5177 2.06912 15.053 1.53396C15.5882 0.998624 16.2372 0.730957 17 0.730957C17.7628 0.730957 18.4118 0.998624 18.947 1.53396C19.4823 2.06912 19.75 2.71812 19.75 3.48096C19.75 4.24379 19.4823 4.89287 18.947 5.42821C18.4118 5.96337 17.7628 6.23096 17 6.23096Z" fill="#1C1B1F"/>
</svg>
