<svg width="20" height="20" viewBox="0 0 20 20" fill="none" xmlns="http://www.w3.org/2000/svg">
<path d="M14.323 17.0385L17.4807 13.9155L16.6423 13.077L14.323 15.3558L13.3577 14.3807L12.5193 15.2345L14.323 17.0385ZM3.38475 5.86525H14.6152V4.3655H3.38475V5.86525ZM15 19.5578C13.7513 19.5578 12.6892 19.1199 11.8135 18.2443C10.9378 17.3686 10.5 16.3064 10.5 15.0577C10.5 13.8091 10.9378 12.7469 11.8135 11.8713C12.6892 10.9956 13.7513 10.5577 15 10.5577C16.2487 10.5577 17.3108 10.9956 18.1865 11.8713C19.0622 12.7469 19.5 13.8091 19.5 15.0577C19.5 16.3064 19.0622 17.3686 18.1865 18.2443C17.3108 19.1199 16.2487 19.5578 15 19.5578ZM0.5 18.3845V2.30775C0.5 1.80908 0.676583 1.38308 1.02975 1.02975C1.38308 0.676583 1.80908 0.5 2.30775 0.5H15.6923C16.1909 0.5 16.6169 0.676583 16.9703 1.02975C17.3234 1.38308 17.5 1.80908 17.5 2.30775V8.61725C17.2602 8.51208 17.0169 8.424 16.7703 8.353C16.5234 8.28183 16.2667 8.22767 16 8.1905V2.30775C16 2.23075 15.9679 2.16025 15.9038 2.09625C15.8398 2.03208 15.7692 2 15.6923 2H2.30775C2.23075 2 2.16025 2.03208 2.09625 2.09625C2.03208 2.16025 2 2.23075 2 2.30775V16.05H8.20975C8.27375 16.4448 8.36758 16.8243 8.49125 17.1885C8.61508 17.5525 8.78017 17.898 8.9865 18.225L8.89425 18.3173L7.577 17.1538L6.15375 18.3845L4.73075 17.1538L3.30775 18.3845L1.88475 17.1538L0.5 18.3845ZM3.38475 13.6345H8.277C8.3205 13.3678 8.38108 13.1112 8.45875 12.8645C8.53625 12.6177 8.63075 12.3744 8.74225 12.1348H3.38475V13.6345ZM3.38475 9.75H10.5905C11.07 9.31283 11.6136 8.96158 12.2212 8.69625C12.8289 8.43075 13.4763 8.282 14.1635 8.25H3.38475V9.75Z" fill="#676666"/>
</svg>
