<svg width="18" height="20" viewBox="0 0 18 20" fill="none" xmlns="http://www.w3.org/2000/svg">
<path d="M3 19.5001C2.30133 19.5001 1.71 19.2581 1.226 18.7741C0.742 18.2901 0.5 17.7003 0.5 17.0046V14.5001H3.5V0.692383L4.88475 1.88488L6.2885 0.692383L7.69225 1.88488L9.09625 0.692383L10.5 1.88488L11.9038 0.692383L13.3077 1.88488L14.7115 0.692383L16.1152 1.88488L17.5 0.692383V17.0001C17.5 17.6988 17.258 18.2901 16.774 18.7741C16.29 19.2581 15.6987 19.5001 15 19.5001H3ZM15 18.0001C15.2833 18.0001 15.5208 17.9043 15.7125 17.7126C15.9042 17.521 16 17.2835 16 17.0001V3.00013H5V14.5001H14V17.0001C14 17.2835 14.0958 17.521 14.2875 17.7126C14.4792 17.9043 14.7167 18.0001 15 18.0001ZM6.19225 6.75013V5.25013H11.8652V6.75013H6.19225ZM6.19225 9.75013V8.25013H11.8652V9.75013H6.19225ZM13.9423 6.88463C13.6974 6.88463 13.4888 6.79847 13.3163 6.62613C13.1439 6.45363 13.0577 6.24497 13.0577 6.00013C13.0577 5.7553 13.1439 5.54663 13.3163 5.37413C13.4888 5.2018 13.6974 5.11563 13.9423 5.11563C14.1871 5.11563 14.3958 5.2018 14.5682 5.37413C14.7407 5.54663 14.827 5.7553 14.827 6.00013C14.827 6.24497 14.7407 6.45363 14.5682 6.62613C14.3958 6.79847 14.1871 6.88463 13.9423 6.88463ZM13.9423 9.88463C13.6974 9.88463 13.4888 9.79847 13.3163 9.62613C13.1439 9.45363 13.0577 9.24497 13.0577 9.00013C13.0577 8.7553 13.1439 8.54663 13.3163 8.37413C13.4888 8.2018 13.6974 8.11563 13.9423 8.11563C14.1871 8.11563 14.3958 8.2018 14.5682 8.37413C14.7407 8.54663 14.827 8.7553 14.827 9.00013C14.827 9.24497 14.7407 9.45363 14.5682 9.62613C14.3958 9.79847 14.1871 9.88463 13.9423 9.88463ZM3 18.0001H12.5V16.0001H2V17.0001C2 17.2835 2.09583 17.521 2.2875 17.7126C2.47917 17.9043 2.71667 18.0001 3 18.0001Z" fill="#676666"/>
</svg>
